<svg width="36" height="36" viewBox="0 0 36 36" fill="none" xmlns="http://www.w3.org/2000/svg">
<g clip-path="url(#clip0_63_128)">
<path fill-rule="evenodd" clip-rule="evenodd" d="M32.0436 22.1364C32.0436 22.1364 34.9542 25.011 35.6742 26.3412C35.6882 26.3603 35.6992 26.3816 35.7066 26.4042C36 26.8956 36.072 27.2808 35.928 27.5652C35.685 28.035 34.8624 28.2708 34.5834 28.2906H29.439C29.0808 28.2906 28.3356 28.197 27.4284 27.5706C26.7354 27.0864 26.046 26.289 25.3782 25.5096C24.381 24.3522 23.5188 23.3478 22.6458 23.3478C22.5356 23.3475 22.4261 23.3658 22.3218 23.4018C21.6612 23.6106 20.8224 24.552 20.8224 27.0594C20.8224 27.8442 20.2032 28.2906 19.7694 28.2906H17.4132C16.6104 28.2906 12.4308 28.0098 8.72464 24.102C4.18324 19.3176 0.10444 9.71995 0.06484 9.63535C-0.18896 9.01435 0.34384 8.67595 0.91984 8.67595H6.11464C6.81124 8.67595 7.03804 9.09715 7.19644 9.47515C7.38004 9.90895 8.06044 11.6442 9.17644 13.5936C10.9836 16.7652 12.0942 18.0558 12.9816 18.0558C13.1484 18.0562 13.3123 18.0128 13.4568 17.9298C14.616 17.2926 14.4 13.1526 14.346 12.2994C14.346 12.1338 14.3442 10.4508 13.7502 9.63715C13.3254 9.05395 12.6018 8.82715 12.1644 8.74435C12.2814 8.57515 12.5298 8.31595 12.8484 8.16295C13.6422 7.76695 15.0768 7.70935 16.5006 7.70935H17.2908C18.8352 7.73095 19.2348 7.82995 19.7964 7.97215C20.9268 8.24215 20.9484 8.97475 20.8494 11.4696C20.8206 12.1824 20.79 12.9852 20.79 13.9302C20.79 14.1318 20.781 14.3568 20.781 14.5854C20.7468 15.8652 20.7018 17.307 21.6054 17.8992C21.7226 17.9722 21.858 18.0108 21.996 18.0108C22.3092 18.0108 23.247 18.0108 25.7904 13.6458C26.9064 11.718 27.7704 9.44455 27.8298 9.27355C27.8802 9.17815 28.0314 8.90995 28.215 8.80195C28.3456 8.73246 28.4919 8.69775 28.6398 8.70115H34.7508C35.4168 8.70115 35.8686 8.80195 35.9568 9.05395C36.1044 9.46255 35.928 10.71 33.138 14.4828C32.6682 15.111 32.256 15.6546 31.8942 16.1298C29.3652 19.449 29.3652 19.6164 32.0436 22.1364V22.1364Z" fill="white"/>
</g>
<defs>
<clipPath id="clip0_63_128">
<rect width="36" height="36" fill="white"/>
</clipPath>
</defs>
</svg>
